<svg xmlns="http://www.w3.org/2000/svg" viewBox="0 0 64 64" role="img" aria-label="Copa">
  <defs>
    <linearGradient id="bg" x1="0" x2="1" y1="0" y2="1">
      <stop offset="0%" stop-color="#6b2fa2"/>
      <stop offset="100%" stop-color="#caa24f"/>
    </linearGradient>
  </defs>
  <rect width="64" height="64" rx="16" fill="url(#bg)"/>
  <path d="M20 18h24v8c0 7.7-5.1 14.2-12 16.5C25.1 40.2 20 33.7 20 26v-8Z" fill="#fff" opacity=".95"/>
  <path d="M18 22h-4c0 7 2.6 12 8 14.7l2.1-4.1C20.6 30.8 18.5 27.2 18 22Zm32 0h-4c-.5 5.2-2.6 8.8-6.1 10.6l2.1 4.1c5.4-2.7 8-7.7 8-14.7Z" fill="#fff" opacity=".8"/>
  <circle cx="32" cy="27" r="5" fill="#caa24f"/>
  <rect x="28" y="42" width="8" height="6" rx="2" fill="#fff"/>
</svg>
